<svg width="512" height="512" viewBox="0 0 512 512" fill="none" xmlns="http://www.w3.org/2000/svg">
  <rect width="512" height="512" rx="128" fill="#F3E1C7"/>
  <circle cx="256" cy="272" r="160" fill="#7A5230"/>
  <circle cx="156" cy="160" r="60" fill="#7A5230"/>
  <circle cx="356" cy="160" r="60" fill="#7A5230"/>
  <circle cx="156" cy="160" r="36" fill="#8C6239"/>
  <circle cx="356" cy="160" r="36" fill="#8C6239"/>
  <circle cx="256" cy="292" r="72" fill="#8C6239"/>
  <circle cx="232" cy="262" r="16" fill="#2E1C12"/>
  <circle cx="280" cy="262" r="16" fill="#2E1C12"/>
  <path d="M256 286c20 0 36 14 36 30 0 22-18 40-36 54-18-14-36-32-36-54 0-16 16-30 36-30z" fill="#2E1C12"/>
  <path d="M226 318c18 12 42 12 60 0" stroke="#2E1C12" stroke-width="10" stroke-linecap="round"/>
</svg>
